# xmcd CD database file
#
# Track frame offsets:
#	150
#	22531
#	39626
#	59278
#	80392
#	99496
#
# Disc length: 2110 seconds
#
# Revision: 1
# Processed by: cddbd v1.5.2PL0 Copyright (c) Steve Scherf et al.
# Submitted via: CDex 1.51
#
DISCID=39083c06
DTITLE=The Brian Jonestown Massacre - Zero: Songs From the Album Bravery, Repetition and Noise
DYEAR=2000
DGENRE=Rock
TTITLE0=Let Me Stand Next To Your Flower
TTITLE1=Sailor
TTITLE2=Open Heart Surgery
TTITLE3=Whatever Hippie Bitch
TTITLE4=Love Is The Drug, Then I Want To OD
TTITLE5=New Kind Of Sick
EXTD=YEAR: 2000
EXTT0=
EXTT1=
EXTT2=
EXTT3=
EXTT4=
EXTT5=
PLAYORDER=
